<svg xmlns="http://www.w3.org/2000/svg" fill="none" viewBox="0 0 146 32"><g clip-path="url(#a)"><path fill="#CF056F" d="M15.885 31.792c1.82 0 3.295-1.466 3.295-3.273 0-1.807-1.476-3.272-3.295-3.272-1.82 0-3.296 1.465-3.296 3.272 0 1.808 1.476 3.273 3.296 3.273Z"/><path fill="url(#b)" d="M31.879 3.278C31.874 1.466 30.386-.005 28.56 0L3.46.066C1.547.07-.005 1.62 0 3.519l.008 3.128 28.57-.075c1.825-.004 3.306-1.483 3.3-3.295Z"/><path fill="#312783" d="M28.514 12.63c-1.781.005-3.226 1.448-3.221 3.216l.033 12.736c.005 1.768 1.458 3.203 3.238 3.198h.16c1.78-.005 3.226-1.447 3.22-3.215l-.033-12.578c-.005-1.855-1.529-3.361-3.398-3.356Zm-9.367 3.298c-.005-1.812-1.494-3.282-3.318-3.278l-15.8.042L.07 28.49c.005 1.856 1.53 3.361 3.398 3.357 1.78-.005 3.226-1.448 3.221-3.216l-.025-9.384 9.182-.024c1.825-.005 3.305-1.483 3.3-3.295Zm26.379-6.211h4.66V6.921h-4.66V3.515h6.48V.653h-9.56v14.5h3.08V9.718ZM56.37 4.791h-2.88v10.362h2.881V4.791Zm4.849 4.636c0-1.862.923-2.888 2.6-2.888 1.678 0 2.602 1.026 2.602 2.888v4.382a1.35 1.35 0 0 0 1.354 1.345h1.527V9.427c0-3.492-2.05-5.575-5.482-5.575-3.433 0-5.483 2.083-5.483 5.575v5.727h2.882V9.427Zm25.94 0c0-1.862.923-2.888 2.6-2.888 1.678 0 2.602 1.026 2.602 2.888v4.364c0 .753.614 1.363 1.372 1.363h1.51V9.427c0-3.492-2.05-5.575-5.483-5.575s-5.483 2.083-5.483 5.575v5.727h2.882V9.427Zm15.339-2.887c1.334 0 2.4.674 2.852 1.805l.034.087h2.891l-.034-.164c-.554-2.683-2.809-4.416-5.743-4.416-3.456 0-5.965 2.436-5.965 5.792s2.509 5.793 5.965 5.793c2.934 0 5.189-1.733 5.743-4.417l.034-.163h-2.891l-.034.086c-.452 1.131-1.518 1.806-2.852 1.806-1.802 0-3.061-1.277-3.061-3.105s1.259-3.105 3.061-3.105Zm-60.03 12.184V31.7h3.08V17.2h-1.544a1.53 1.53 0 0 0-1.536 1.524Zm10.235 1.674c-3.433 0-5.483 2.083-5.483 5.575V31.7h2.882v-5.727c0-1.862.924-2.888 2.6-2.888 1.678 0 2.602 1.026 2.602 2.887v4.341c0 .766.625 1.387 1.396 1.387h1.486v-5.727c0-3.492-2.05-5.575-5.483-5.575Zm12.786 0c-3.433 0-5.483 2.083-5.483 5.575V31.7h2.882v-5.727c0-1.862.924-2.888 2.601-2.888s2.601 1.026 2.601 2.887v4.345c0 .764.623 1.383 1.392 1.383h1.49v-5.727c0-3.492-2.05-5.575-5.483-5.575Zm12.739 0c-3.457 0-5.965 2.436-5.965 5.792s2.508 5.793 5.965 5.793c3.456 0 5.964-2.436 5.964-5.793s-2.508-5.793-5.964-5.793Zm0 8.897c-1.803 0-3.062-1.277-3.062-3.105s1.26-3.105 3.062-3.105c1.817 0 3.039 1.248 3.039 3.105s-1.222 3.105-3.04 3.105Zm14.786-8.615-2.905 8.105-2.904-8.105h-3.146l4.323 10.933.034.086h3.32l4.358-11.02h-3.08Zm34.766-.282c-3.457 0-5.965 2.436-5.965 5.792s2.508 5.793 5.965 5.793c3.456 0 5.964-2.436 5.964-5.793s-2.508-5.793-5.964-5.793Zm0 8.897c-1.803 0-3.061-1.277-3.061-3.105s1.258-3.105 3.061-3.105c1.818 0 3.039 1.248 3.039 3.105s-1.221 3.105-3.039 3.105Zm12.737-8.897c-3.433 0-5.482 2.083-5.482 5.575V31.7h2.881v-5.727c0-1.862.924-2.888 2.601-2.888 1.678 0 2.601 1.026 2.601 2.887v4.416c0 .724.592 1.312 1.321 1.312H146v-5.727c0-3.492-2.05-5.575-5.483-5.575ZM56.382 3.47l-.003-.954C56.377 1.47 55.595.623 54.633.625l-1.16.003.007 2.85 2.902-.007Zm58.616.382c-3.457 0-5.965 2.436-5.965 5.792s2.508 5.793 5.965 5.793c2.455 0 4.421-1.192 5.34-3.188h-3.3c-.499.378-1.171.565-2.04.565l-.033-.002a3.443 3.443 0 0 1-.78-.095 2.937 2.937 0 0 1-1.494-.877c-.507-.557-.807-1.318-.807-2.196 0-.808.253-1.519.688-2.06.401-.54 1.309-1.11 2.426-1.11 1.457 0 2.416.797 2.835 1.995h-4.055v1.17a1.06 1.06 0 0 0 1.064 1.055h6.076v-1.05c0-3.356-2.49-5.792-5.92-5.792Zm5.334 17.498h-2.881v10.362h2.881V21.35Zm-1.738-4.166-1.16.003.007 2.85 2.902-.008-.002-.954c-.003-1.047-.785-1.894-1.747-1.891Zm-6.112.051h-1.448a1.43 1.43 0 0 0-1.434 1.424v8.478c0 2.894 1.663 4.553 4.563 4.553v-.001h.796v-2.688h-.805c-1.109-.003-1.672-.63-1.672-1.864v-3.835h3.44V20.68h-3.44v-3.445ZM76.12 15.437c.608 0 1.172-.097 1.678-.282v-2.63c-.37.146-.787.224-1.24.224-1.803 0-3.062-1.277-3.062-3.105s1.26-3.105 3.062-3.105c1.744 0 3.02 1.266 3.02 3.034l.003 4.212c0 .757.619 1.37 1.38 1.37l1.517-.001V9.73c0-3.516-2.37-5.88-5.899-5.88-3.528 0-5.986 2.428-5.986 5.902 0 3.732 2.78 5.684 5.526 5.684Zm25.835 4.978c-3.525 0-5.986 2.427-5.986 5.902 0 3.731 2.78 5.683 5.526 5.683a4.89 4.89 0 0 0 1.679-.281v-2.63a3.37 3.37 0 0 1-1.24.224c-1.803 0-3.062-1.277-3.062-3.105 0-1.829 1.259-3.105 3.062-3.105 1.744 0 3.021 1.265 3.021 3.033l.002 4.213a1.376 1.376 0 0 0 1.38 1.369h1.517v-5.423c0-3.517-2.37-5.88-5.899-5.88Z"/></g><defs><linearGradient id="b" x1="-.156" x2="31.536" y1="3.324" y2="3.324" gradientUnits="userSpaceOnUse"><stop stop-color="#312783"/><stop offset=".122" stop-color="#3A2481"/><stop offset=".33" stop-color="#551F7E"/><stop offset=".598" stop-color="#811578"/><stop offset=".912" stop-color="#BC0871"/><stop offset="1" stop-color="#CF056F"/></linearGradient><clipPath id="a"><path fill="#fff" d="M0 0h146v32H0z"/></clipPath></defs></svg>